#Comment line ignore any data following # character 
#Hierarchical Translation and Rotation (.htr) file 
[Header]	
#Header keywords are followed by a single value 
FileType HTR		#Single word string
DataType HTRS		#Translation followed by rotation and scale data
FileVersion 1		#integer
NumSegments 84		#integer
NumFrames 2		#integer
DataFrameRate 30		#integer, data frame rate in this file
EulerRotationOrder ZYX
CalibrationUnits mm
RotationUnits Degrees
GlobalAxisofGravity Y
BoneLengthAxis Y
ScaleFactor 1.00
[SegmentNames&Hierarchy]
#CHILD	PARENT
MASTER GLOBAL
root MASTER
chest root
L_mid_tent01 root
R_mid_tent01 root
spine01 root
Bip01_Neck chest
L_humerus chest
R_humerus chest
weapon_bone chest
Bip01_Head Bip01_Neck
eye_left_bone Bip01_Head
eye_right_bone Bip01_Head
L_forearm L_humerus
L_front_hand L_forearm
L_weapon_bone L_forearm
L_front_hand01_01 L_front_hand
L_front_hand02_01 L_front_hand
L_front_hand03_01 L_front_hand
L_front_hand01_02 L_front_hand01_01
L_front_hand02_02 L_front_hand02_01
L_front_hand03_02 L_front_hand03_01
R_forearm R_humerus
R_front_hand R_forearm
R_weapon_bone R_forearm
R_front_hand01_01 R_front_hand
R_front_hand02_01 R_front_hand
R_front_hand03_01 R_front_hand
R_front_hand01_02 R_front_hand01_01
R_front_hand02_02 R_front_hand02_01
R_front_hand03_02 R_front_hand03_01
null_rope01_connect L_mid_tent01
Rope1_Seg01 null_rope01_connect
Rope1_Seg02 Rope1_Seg01
Rope1_Seg03 Rope1_Seg02
Rope1_Seg04 Rope1_Seg03
Rope1_Seg05 Rope1_Seg04
Rope1_Seg06 Rope1_Seg05
Rope1_Seg07 Rope1_Seg06
Rope1_Seg09 Rope1_Seg07
L_mid_hand01 Rope1_Seg09
L_mid_hand02 Rope1_Seg09
L_mid_hand03 Rope1_Seg09
null_rope02_connect R_mid_tent01
Rope2_Seg01 null_rope02_connect
Rope2_Seg02 Rope2_Seg01
Rope2_Seg03 Rope2_Seg02
Rope2_Seg04 Rope2_Seg03
Rope2_Seg05 Rope2_Seg04
Rope2_Seg06 Rope2_Seg05
Rope2_Seg07 Rope2_Seg06
Rope2_Seg09 Rope2_Seg07
R_mid_hand01 Rope2_Seg09
R_mid_hand02 Rope2_Seg09
R_mid_hand03 Rope2_Seg09
spine02 spine01
spine03 spine02
pelvis spine03
null_rope03_connect pelvis
null_rope04_connect pelvis
Rope3_Seg01 null_rope03_connect
Rope3_Seg02 Rope3_Seg01
Rope3_Seg03 Rope3_Seg02
Rope3_Seg04 Rope3_Seg03
Rope3_Seg05 Rope3_Seg04
Rope3_Seg06 Rope3_Seg05
Rope3_Seg07 Rope3_Seg06
Rope3_Seg08 Rope3_Seg07
Rope3_Seg09 Rope3_Seg08
R_rear_hand01 Rope3_Seg09
R_rear_hand02 Rope3_Seg09
R_rear_hand03 Rope3_Seg09
Rope4_Seg01 null_rope04_connect
Rope4_Seg02 Rope4_Seg01
Rope4_Seg03 Rope4_Seg02
Rope4_Seg04 Rope4_Seg03
Rope4_Seg05 Rope4_Seg04
Rope4_Seg06 Rope4_Seg05
Rope4_Seg07 Rope4_Seg06
Rope4_Seg08 Rope4_Seg07
Rope4_Seg09 Rope4_Seg08
L_rear_hand01 Rope4_Seg09
L_rear_hand02 Rope4_Seg09
L_rear_hand03 Rope4_Seg09
[BasePosition]
#SegmentName Tx, Ty, Tz, Rx, Ry, Rz, BoneLength
MASTER 0.000000 0.000000 0.000000 -90.000000 0.000000 0.000000 10.000000 
root 0.000000 0.000000 0.000000 0.000000 0.000000 0.000000 10.000000 
chest 0.000000 0.000000 0.000000 0.000000 0.000000 0.000000 10.000000 
L_mid_tent01 0.000000 0.000000 0.000000 0.000000 0.000000 0.000000 10.000000 
R_mid_tent01 0.000000 0.000000 0.000000 0.000000 0.000000 0.000000 10.000000 
spine01 0.000000 0.000000 0.000000 0.000000 0.000000 0.000000 10.000000 
Bip01_Neck 0.000000 0.000000 0.000000 0.000000 0.000000 0.000000 10.000000 
L_humerus 0.000000 0.000000 0.000000 0.000000 0.000000 0.000000 10.000000 
R_humerus 0.000000 0.000000 0.000000 0.000000 0.000000 0.000000 10.000000 
weapon_bone 0.000000 0.000000 0.000000 0.000000 0.000000 0.000000 10.000000 
Bip01_Head 0.000000 0.000000 0.000000 0.000000 0.000000 0.000000 10.000000 
eye_left_bone 0.000000 0.000000 0.000000 0.000000 0.000000 0.000000 10.000000 
eye_right_bone 0.000000 0.000000 0.000000 0.000000 0.000000 0.000000 10.000000 
L_forearm 0.000000 0.000000 0.000000 0.000000 0.000000 0.000000 10.000000 
L_front_hand 0.000000 0.000000 0.000000 0.000000 0.000000 0.000000 10.000000 
L_weapon_bone 0.000000 0.000000 0.000000 0.000000 0.000000 0.000000 10.000000 
L_front_hand01_01 0.000000 0.000000 0.000000 0.000000 0.000000 0.000000 10.000000 
L_front_hand02_01 0.000000 0.000000 0.000000 0.000000 0.000000 0.000000 10.000000 
L_front_hand03_01 0.000000 0.000000 0.000000 0.000000 0.000000 0.000000 10.000000 
L_front_hand01_02 0.000000 0.000000 0.000000 0.000000 0.000000 0.000000 10.000000 
L_front_hand02_02 0.000000 0.000000 0.000000 0.000000 0.000000 0.000000 10.000000 
L_front_hand03_02 0.000000 0.000000 0.000000 0.000000 0.000000 0.000000 10.000000 
R_forearm 0.000000 0.000000 0.000000 0.000000 0.000000 0.000000 10.000000 
R_front_hand 0.000000 0.000000 0.000000 0.000000 0.000000 0.000000 10.000000 
R_weapon_bone 0.000000 0.000000 0.000000 0.000000 0.000000 0.000000 10.000000 
R_front_hand01_01 0.000000 0.000000 0.000000 0.000000 0.000000 0.000000 10.000000 
R_front_hand02_01 0.000000 0.000000 0.000000 0.000000 0.000000 0.000000 10.000000 
R_front_hand03_01 0.000000 0.000000 0.000000 0.000000 0.000000 0.000000 10.000000 
R_front_hand01_02 0.000000 0.000000 0.000000 0.000000 0.000000 0.000000 10.000000 
R_front_hand02_02 0.000000 0.000000 0.000000 0.000000 0.000000 0.000000 10.000000 
R_front_hand03_02 0.000000 0.000000 0.000000 0.000000 0.000000 0.000000 10.000000 
null_rope01_connect 0.000000 0.000000 0.000000 0.000000 0.000000 0.000000 10.000000 
Rope1_Seg01 0.000000 0.000000 0.000000 0.000000 0.000000 0.000000 10.000000 
Rope1_Seg02 0.000000 0.000000 0.000000 0.000000 0.000000 0.000000 10.000000 
Rope1_Seg03 0.000000 0.000000 0.000000 0.000000 0.000000 0.000000 10.000000 
Rope1_Seg04 0.000000 0.000000 0.000000 0.000000 0.000000 0.000000 10.000000 
Rope1_Seg05 0.000000 0.000000 0.000000 0.000000 0.000000 0.000000 10.000000 
Rope1_Seg06 0.000000 0.000000 0.000000 0.000000 0.000000 0.000000 10.000000 
Rope1_Seg07 0.000000 0.000000 0.000000 0.000000 0.000000 0.000000 10.000000 
Rope1_Seg09 0.000000 0.000000 0.000000 0.000000 0.000000 0.000000 10.000000 
L_mid_hand01 0.000000 0.000000 0.000000 0.000000 0.000000 0.000000 10.000000 
L_mid_hand02 0.000000 0.000000 0.000000 0.000000 0.000000 0.000000 10.000000 
L_mid_hand03 0.000000 0.000000 0.000000 0.000000 0.000000 0.000000 10.000000 
null_rope02_connect 0.000000 0.000000 0.000000 0.000000 0.000000 0.000000 10.000000 
Rope2_Seg01 0.000000 0.000000 0.000000 0.000000 0.000000 0.000000 10.000000 
Rope2_Seg02 0.000000 0.000000 0.000000 0.000000 0.000000 0.000000 10.000000 
Rope2_Seg03 0.000000 0.000000 0.000000 0.000000 0.000000 0.000000 10.000000 
Rope2_Seg04 0.000000 0.000000 0.000000 0.000000 0.000000 0.000000 10.000000 
Rope2_Seg05 0.000000 0.000000 0.000000 0.000000 0.000000 0.000000 10.000000 
Rope2_Seg06 0.000000 0.000000 0.000000 0.000000 0.000000 0.000000 10.000000 
Rope2_Seg07 0.000000 0.000000 0.000000 0.000000 0.000000 0.000000 10.000000 
Rope2_Seg09 0.000000 0.000000 0.000000 0.000000 0.000000 0.000000 10.000000 
R_mid_hand01 0.000000 0.000000 0.000000 0.000000 0.000000 0.000000 10.000000 
R_mid_hand02 0.000000 0.000000 0.000000 0.000000 0.000000 0.000000 10.000000 
R_mid_hand03 0.000000 0.000000 0.000000 0.000000 0.000000 0.000000 10.000000 
spine02 0.000000 0.000000 0.000000 0.000000 0.000000 0.000000 10.000000 
spine03 0.000000 0.000000 0.000000 0.000000 0.000000 0.000000 10.000000 
pelvis 0.000000 0.000000 0.000000 0.000000 0.000000 0.000000 10.000000 
null_rope03_connect 0.000000 0.000000 0.000000 0.000000 0.000000 0.000000 10.000000 
null_rope04_connect 0.000000 0.000000 0.000000 0.000000 0.000000 0.000000 10.000000 
Rope3_Seg01 0.000000 0.000000 0.000000 0.000000 0.000000 0.000000 10.000000 
Rope3_Seg02 0.000000 0.000000 0.000000 0.000000 0.000000 0.000000 10.000000 
Rope3_Seg03 0.000000 0.000000 0.000000 0.000000 0.000000 0.000000 10.000000 
Rope3_Seg04 0.000000 0.000000 0.000000 0.000000 0.000000 0.000000 10.000000 
Rope3_Seg05 0.000000 0.000000 0.000000 0.000000 0.000000 0.000000 10.000000 
Rope3_Seg06 0.000000 0.000000 0.000000 0.000000 0.000000 0.000000 10.000000 
Rope3_Seg07 0.000000 0.000000 0.000000 0.000000 0.000000 0.000000 10.000000 
Rope3_Seg08 0.000000 0.000000 0.000000 0.000000 0.000000 0.000000 10.000000 
Rope3_Seg09 0.000000 0.000000 0.000000 0.000000 0.000000 0.000000 10.000000 
R_rear_hand01 0.000000 0.000000 0.000000 0.000000 0.000000 0.000000 10.000000 
R_rear_hand02 0.000000 0.000000 0.000000 0.000000 0.000000 0.000000 10.000000 
R_rear_hand03 0.000000 0.000000 0.000000 0.000000 0.000000 0.000000 10.000000 
Rope4_Seg01 0.000000 0.000000 0.000000 0.000000 0.000000 0.000000 10.000000 
Rope4_Seg02 0.000000 0.000000 0.000000 0.000000 0.000000 0.000000 10.000000 
Rope4_Seg03 0.000000 0.000000 0.000000 0.000000 0.000000 0.000000 10.000000 
Rope4_Seg04 0.000000 0.000000 0.000000 0.000000 0.000000 0.000000 10.000000 
Rope4_Seg05 0.000000 0.000000 0.000000 0.000000 0.000000 0.000000 10.000000 
Rope4_Seg06 0.000000 0.000000 0.000000 0.000000 0.000000 0.000000 10.000000 
Rope4_Seg07 0.000000 0.000000 0.000000 0.000000 0.000000 0.000000 10.000000 
Rope4_Seg08 0.000000 0.000000 0.000000 0.000000 0.000000 0.000000 10.000000 
Rope4_Seg09 0.000000 0.000000 0.000000 0.000000 0.000000 0.000000 10.000000 
L_rear_hand01 0.000000 0.000000 0.000000 0.000000 0.000000 0.000000 10.000000 
L_rear_hand02 0.000000 0.000000 0.000000 0.000000 0.000000 0.000000 10.000000 
L_rear_hand03 0.000000 0.000000 0.000000 0.000000 0.000000 0.000000 10.000000 
#Beginning of Data. Separated by tabs
#Fr	Tx	Ty	Tz	Rx	Ry	Rz	SF
[MASTER]
17 0.000000 0.000000 0.000000 0.001660 0.001660 0.001660 0.000000
18 0.000000 0.000000 0.000000 0.001660 0.001660 0.001660 0.000000
[root]
17 -34.881615 -53.001965 4724.970703 -96.520058 -12.020678 -92.573540 4725.396973
18 -34.131638 -53.402668 4845.123047 -96.533852 -15.487546 -91.469154 4845.537598
[chest]
17 -84.512650 -34.090519 0.000000 -21.732323 -25.738258 176.181641 91.129311
18 -84.512650 -34.090519 0.000000 -25.224430 -21.615936 177.585938 91.129311
[L_mid_tent01]
17 27.299555 22.177713 -249.918213 4.294938 43.510967 82.021996 252.381119
18 27.299559 22.177717 -249.918213 4.580410 47.159412 82.423813 252.381119
[R_mid_tent01]
17 23.228794 24.509907 226.238495 160.432037 -47.061241 87.899765 228.744751
18 23.228794 24.509907 226.238495 160.432037 -47.061241 87.899765 228.744751
[spine01]
17 -0.361383 -0.195265 0.000000 0.002062 0.001122 32.879829 0.410763
18 -0.361383 -0.195265 0.000000 0.002062 0.001122 32.879829 0.410763
[Bip01_Neck]
17 165.484543 71.581718 0.000119 176.643677 -1.657967 43.431911 180.302734
18 165.484543 71.581718 0.000119 176.643677 -1.657967 43.431911 180.302734
[L_humerus]
17 -13.983130 -135.272980 -120.471481 48.961864 68.557198 165.210358 181.680161
18 -13.983130 -135.272980 -120.471481 72.763725 74.001709 -178.926346 181.680161
[R_humerus]
17 -13.983309 -135.273102 125.287651 -168.805557 -22.085159 -103.532463 184.909012
18 -13.983309 -135.273102 125.287651 -167.229462 -37.333233 -103.207092 184.909012
[weapon_bone]
17 235.964890 -300.705902 0.000000 0.000000 -89.951546 -128.212341 382.234833
18 235.964890 -300.705902 0.000000 0.000000 -89.951546 -128.212341 382.234833
[Bip01_Head]
17 213.327866 186.039352 7.595433 32.975178 10.562588 -42.389576 283.155640
18 213.328888 186.036560 7.631509 32.301014 15.792094 -38.555183 283.155518
[eye_left_bone]
17 -24.626970 125.451866 -64.772606 0.000000 -90.000000 -99.840431 143.318359
18 -24.626970 125.451866 -64.772606 0.000000 -90.000000 -99.840431 143.318359
[eye_right_bone]
17 -24.626970 125.451866 64.327362 0.000000 -89.965736 80.156380 143.117676
18 -24.626970 125.451866 64.327362 0.000000 -89.965736 80.156380 143.117676
[L_forearm]
17 322.776093 0.000000 -0.000119 0.000119 -0.002344 -95.807457 322.776093
18 322.776093 0.000000 -0.000119 0.000119 -0.002344 -95.807457 322.776093
[L_front_hand]
17 241.149185 -0.042021 -3.300071 -178.667953 -1.835447 -27.422350 241.171753
18 241.149185 -0.042021 -3.300071 -178.667953 -1.835447 -27.422350 241.171753
[L_weapon_bone]
17 156.183838 0.000000 0.000000 0.000014 0.000007 0.000001 156.183838
18 156.183838 0.000000 0.000000 0.000014 0.000007 0.000001 156.183838
[L_front_hand01_01]
17 86.095154 20.947098 -0.655860 -0.282467 -0.528169 66.067482 88.609184
18 86.095154 20.947098 -0.655860 -0.289102 -0.524108 66.611092 88.609184
[L_front_hand02_01]
17 86.935165 -11.437475 24.513514 141.960800 -54.937954 -46.642353 91.046425
18 86.935165 -11.437475 24.513514 142.580536 -55.269016 -47.395405 91.046425
[L_front_hand03_01]
17 86.637497 -14.123976 -20.424902 -142.303543 53.163319 -48.671036 90.126129
18 86.637497 -14.123976 -20.424902 -142.879883 53.494293 -49.392010 90.126129
[L_front_hand01_02]
17 71.020905 -0.000179 0.000030 0.000315 -0.002326 -105.421257 71.020905
18 71.020905 -0.000179 0.000030 0.000315 -0.002326 -105.441971 71.020905
[L_front_hand02_02]
17 71.020927 -0.000119 0.000060 0.000315 -0.002326 -105.421257 71.020927
18 71.020927 -0.000119 0.000060 0.000315 -0.002326 -105.441971 71.020927
[L_front_hand03_02]
17 71.020905 -0.000060 0.000060 0.000315 -0.002326 -105.421257 71.020905
18 71.020905 -0.000060 0.000060 0.000315 -0.002326 -105.441971 71.020905
[R_forearm]
17 322.776428 -0.000060 0.000030 0.209504 0.012586 -94.339050 322.776428
18 322.776428 -0.000060 0.000030 0.209504 0.012586 -94.339050 322.776428
[R_front_hand]
17 238.847015 -0.006795 2.210259 -2.635298 -10.645461 -26.312506 238.857239
18 238.847015 -0.006795 2.210259 -2.635298 -10.645461 -26.312506 238.857239
[R_weapon_bone]
17 155.664093 0.002503 -0.000030 0.003487 0.001180 -90.988930 155.664078
18 155.664093 0.002503 -0.000030 0.003487 0.001180 -90.988930 155.664078
[R_front_hand01_01]
17 87.624611 14.231146 22.918642 -139.271561 -53.333107 43.426716 91.683487
18 87.624611 14.231146 22.918642 -140.217056 -53.925087 44.603302 91.683487
[R_front_hand02_01]
17 89.356956 14.367283 -19.491137 140.080994 51.767307 46.104954 92.579636
18 89.356956 14.367283 -19.491137 140.984970 52.347912 47.247581 92.579636
[R_front_hand03_01]
17 87.286232 -22.307278 -0.143439 0.071479 -0.448702 -63.787704 90.091743
18 87.286232 -22.307278 -0.143439 0.075044 -0.448119 -64.698730 90.091743
[R_front_hand01_02]
17 71.020905 0.000060 0.000119 0.002323 -0.000334 106.381714 71.020905
18 71.020905 0.000060 0.000119 0.002323 -0.000334 106.381714 71.020905
[R_front_hand02_02]
17 71.020844 -0.000030 -0.000119 0.002323 -0.000334 106.381714 71.020836
18 71.020844 -0.000030 -0.000119 0.002323 -0.000334 106.381714 71.020836
[R_front_hand03_02]
17 71.020905 0.000000 0.000030 0.002323 -0.000334 106.381714 71.020905
18 71.020905 0.000000 0.000030 0.002323 -0.000334 106.381714 71.020905
[null_rope01_connect]
17 328.732483 0.000000 -0.000238 -153.300354 -38.859909 174.575668 328.732483
18 328.732483 0.000000 -0.000238 -150.996567 -35.607887 176.102219 328.732483
[Rope1_Seg01]
17 0.000028 -0.000076 -0.000180 101.499542 -12.254697 -170.866333 0.000198
18 0.000029 -0.000076 -0.000201 100.026978 -20.969435 -173.910080 0.000217
[Rope1_Seg02]
17 139.999863 -0.000179 0.000000 8.246841 -18.531322 -5.426094 139.999863
18 139.999863 -0.000179 0.000000 3.444488 -13.380544 -1.623035 139.999863
[Rope1_Seg03]
17 139.999924 0.000060 -0.000060 11.210161 -41.852699 -14.800991 139.999924
18 139.999924 0.000060 -0.000060 5.037690 -43.322525 -11.063322 139.999924
[Rope1_Seg04]
17 139.999924 -0.000060 -0.000119 -6.589431 -31.534615 2.162678 139.999924
18 139.999924 -0.000060 -0.000119 -17.696142 -43.246559 2.898166 139.999924
[Rope1_Seg05]
17 139.999832 0.000119 -0.000060 -6.277634 -19.919035 19.203012 139.999832
18 139.999832 0.000119 -0.000060 -3.414071 -17.046347 19.689663 139.999832
[Rope1_Seg06]
17 139.999954 0.000119 -0.000060 -8.377372 -11.502062 7.269472 139.999954
18 139.999954 0.000119 -0.000060 -8.496829 -8.232171 5.423665 139.999954
[Rope1_Seg07]
17 139.999985 0.000060 0.000000 -8.774859 -6.350543 2.481598 139.999985
18 139.999985 0.000060 0.000000 -9.578177 -4.641183 1.950440 139.999985
[Rope1_Seg09]
17 121.602913 0.000119 -0.000089 -89.793175 -1.359789 0.847147 121.602913
18 121.602913 0.000119 -0.000089 -89.793175 -1.359789 0.847147 121.602913
[L_mid_hand01]
17 103.859421 1.038730 8.195221 126.075417 -65.098564 -33.991924 104.187431
18 103.859421 1.038730 8.195221 129.242508 -66.931122 -37.458988 104.187431
[L_mid_hand02]
17 105.572853 -4.139662 -10.864139 -166.035263 42.723969 -69.273849 106.211075
18 105.572853 -4.139662 -10.864139 -168.136536 43.236568 -72.353119 106.211075
[L_mid_hand03]
17 104.641464 17.579376 -3.913581 -7.014418 17.452782 71.596497 106.179977
18 104.641464 17.579376 -3.913581 -6.285009 17.719219 74.000862 106.179977
[null_rope02_connect]
17 328.732849 0.000179 -0.000119 -139.021133 47.331367 18.904356 328.732849
18 328.732849 0.000179 -0.000119 -134.603088 46.678123 20.215748 328.732849
[Rope2_Seg01]
17 -0.000139 0.000117 0.000042 -100.140198 46.298973 -9.677063 0.000186
18 -0.000147 0.000115 0.000035 -101.071388 43.939796 -12.499030 0.000190
[Rope2_Seg02]
17 139.999741 -0.000060 -0.000119 -3.050192 -8.301534 6.724730 139.999756
18 139.999741 -0.000060 -0.000119 0.804593 -9.118118 3.063615 139.999756
[Rope2_Seg03]
17 140.000107 0.000030 0.000000 -3.176734 -14.701175 10.366267 140.000107
18 140.000107 0.000030 0.000000 0.685191 -17.367517 5.457644 140.000107
[Rope2_Seg04]
17 139.999802 0.000000 -0.000060 -2.733963 -20.784391 12.470094 139.999802
18 139.999802 0.000000 -0.000060 -1.343964 -24.947424 8.913516 139.999802
[Rope2_Seg05]
17 139.999985 -0.000060 0.000119 0.062541 -12.185752 18.387383 139.999985
18 139.999985 -0.000060 0.000119 -1.243618 -22.796347 28.478790 139.999985
[Rope2_Seg06]
17 139.999893 -0.000030 -0.000119 7.634637 -10.888521 23.328842 139.999893
18 139.999893 -0.000030 -0.000119 23.972666 -23.047264 33.404781 139.999893
[Rope2_Seg07]
17 139.999893 0.000060 -0.000060 11.476967 -5.803844 15.818050 139.999893
18 139.999893 0.000060 -0.000060 21.007402 -1.573749 10.809211 139.999893
[Rope2_Seg09]
17 121.338966 0.000089 -0.000060 33.793236 -1.359788 -0.847141 121.338966
18 121.338966 0.000089 -0.000060 33.793236 -1.359788 -0.847141 121.338966
[R_mid_hand01]
17 104.680779 11.144459 -10.335981 -28.450191 39.729858 52.441833 105.778534
18 104.680779 11.144459 -10.335981 -24.361811 42.075428 58.684338 105.778534
[R_mid_hand02]
17 104.070427 2.443552 8.231699 63.903557 -55.672935 22.558960 104.424065
18 104.070427 2.443552 8.231699 59.930561 -60.321342 27.236174 104.424065
[R_mid_hand03]
17 106.028137 -11.221827 -5.996406 -173.263687 14.341306 -61.789322 106.788818
18 106.028137 -11.221827 -5.996406 -174.631485 14.897619 -67.203438 106.788818
[spine02]
17 129.756927 0.001550 0.000119 -1.023899 -3.926965 6.770993 129.756927
18 129.756927 0.001550 0.000119 -1.023899 -3.926965 6.770993 129.756927
[spine03]
17 78.613892 0.087502 -4.898847 1.040681 4.146420 4.212376 78.766426
18 78.613892 0.087516 -4.898845 1.040681 4.146420 4.212376 78.766426
[pelvis]
17 169.435242 0.051022 0.000000 0.019518 -0.190233 -10.721436 169.435257
18 169.435242 0.051022 0.000000 0.019518 -0.190233 -10.721436 169.435257
[null_rope03_connect]
17 -1.257226 -2.466202 137.391083 -149.965973 -82.279709 -141.230270 137.418976
18 -1.257226 -2.466202 137.391083 -154.349091 -82.674637 -133.319031 137.418976
[null_rope04_connect]
17 -1.259640 -2.480268 -137.844437 -149.965973 -82.279709 -141.230270 137.872513
18 -1.259640 -2.480268 -137.844437 -154.349091 -82.674637 -133.319031 137.872513
[Rope3_Seg01]
17 0.000055 -0.000043 0.000222 -130.994751 3.695659 -95.095894 0.000233
18 0.000059 -0.000042 0.000236 -129.310181 -15.382824 -84.864761 0.000247
[Rope3_Seg02]
17 139.999924 -0.000119 0.000060 4.143131 -15.949190 -28.287655 139.999924
18 139.999924 -0.000119 0.000060 3.900548 -16.819401 -21.444756 139.999924
[Rope3_Seg03]
17 139.999924 -0.000119 0.000119 -2.493242 -3.802482 -18.478329 139.999924
18 139.999924 -0.000119 0.000119 -0.595864 -6.124149 -13.190088 139.999924
[Rope3_Seg04]
17 139.999924 0.000119 0.000000 1.434104 -5.569813 -5.695745 139.999924
18 139.999924 0.000119 0.000000 1.610154 -5.067545 -5.101447 139.999924
[Rope3_Seg05]
17 139.999924 -0.000238 0.000060 13.328860 -15.542172 1.074253 139.999924
18 139.999924 -0.000238 0.000060 11.879123 -11.857215 -1.076360 139.999924
[Rope3_Seg06]
17 139.999893 -0.000119 -0.000060 20.708454 -19.112982 7.860533 139.999893
18 139.999893 -0.000119 -0.000060 25.879166 -18.614630 4.164967 139.999893
[Rope3_Seg07]
17 139.999771 0.000060 -0.000119 11.744688 -9.422111 7.303481 139.999771
18 139.999771 0.000060 -0.000119 18.639801 -11.453797 7.701025 139.999771
[Rope3_Seg08]
17 139.999985 -0.000060 0.000000 6.689525 -4.647429 5.523546 139.999985
18 139.999985 -0.000060 0.000000 10.493559 -5.451582 7.228169 139.999985
[Rope3_Seg09]
17 90.185997 -0.000179 -0.000060 89.793228 -1.359877 -0.847183 90.185997
18 90.185997 -0.000179 -0.000060 89.793228 -1.359877 -0.847183 90.185997
[R_rear_hand01]
17 103.366196 -6.073594 -10.757982 -171.885529 23.373795 -59.632915 104.101845
18 103.366196 -6.073594 -10.757982 -174.043243 23.976639 -65.003036 104.101845
[R_rear_hand02]
17 100.509819 12.039542 -7.992327 -21.647245 32.954250 56.905487 101.543350
18 100.509819 12.039542 -7.992327 -18.533064 34.659107 62.503948 101.543350
[R_rear_hand03]
17 101.539970 5.215704 5.435467 78.870148 -59.128014 13.449206 101.819031
18 101.539970 5.215704 5.435467 76.952400 -63.971813 15.629131 101.819031
[Rope4_Seg01]
17 0.000028 -0.000021 -0.000264 57.612354 -22.729153 -124.273384 0.000266
18 0.000029 -0.000017 -0.000270 58.481754 -26.971935 -121.301880 0.000273
[Rope4_Seg02]
17 139.999985 0.000060 0.000119 -13.311603 4.971372 -23.111208 139.999985
18 139.999985 0.000060 0.000119 -5.600440 -5.877434 -14.556930 139.999985
[Rope4_Seg03]
17 139.999924 0.000000 -0.000238 -17.844498 11.466986 -27.159811 139.999924
18 139.999924 0.000000 -0.000238 -19.579889 -6.573272 -25.916206 139.999924
[Rope4_Seg04]
17 139.999985 0.000000 0.000119 -7.694173 10.086231 -12.992850 139.999985
18 139.999985 0.000000 0.000119 -28.882431 2.785594 -23.954639 139.999985
[Rope4_Seg05]
17 139.999802 -0.000060 -0.000119 -7.361401 16.482475 -14.577215 139.999802
18 139.999802 -0.000060 -0.000119 -39.288227 16.700020 -34.207874 139.999802
[Rope4_Seg06]
17 139.999924 0.000000 0.000060 -5.513528 27.643103 -20.710476 139.999924
18 139.999924 0.000000 0.000060 -15.140223 27.793266 -16.659533 139.999924
[Rope4_Seg07]
17 139.999802 0.000000 0.000000 2.160516 13.582743 -9.466581 139.999802
18 139.999802 0.000000 0.000000 -1.382267 10.993098 -3.326702 139.999802
[Rope4_Seg08]
17 139.999924 0.000000 0.000119 0.478582 5.853743 -4.531073 139.999924
18 139.999924 0.000000 0.000119 -1.667718 4.979089 -1.387792 139.999924
[Rope4_Seg09]
17 90.185791 0.000060 0.000060 -135.617828 2.228885 0.850567 90.185791
18 90.185791 0.000060 0.000060 -135.617828 2.228885 0.850567 90.185791
[L_rear_hand01]
17 101.696655 -8.392275 -7.654577 -14.676033 -36.272411 110.857788 102.329041
18 101.696655 -8.392275 -7.654577 -13.354946 -36.717743 108.641319 102.329041
[L_rear_hand02]
17 102.726799 -1.568258 5.773216 73.610283 69.437737 160.740738 102.900848
18 102.726799 -1.568258 5.773216 72.111580 71.190041 159.144623 102.900848
[L_rear_hand03]
17 104.552910 9.721220 -10.420293 -176.571304 -24.441332 -108.830574 105.519653
18 104.552910 9.721220 -10.420293 -177.406555 -24.537498 -106.814911 105.519653
